<svg xmlns="http://www.w3.org/2000/svg" viewBox="0 0 359.97 17.48"><defs><style>.cls-1{fill:#ea0029;}.cls-2{fill:#231f20;}</style></defs><g id="Layer_2" data-name="Layer 2"><g id="Layer_1-2" data-name="Layer 1"><rect class="cls-1" y="0.1" width="8.6" height="17.22"/><path class="cls-1" d="M23.49,9.7l-.18-.09a.4.4,0,0,1-.2-.54c0-.16.53-1.86.53-1.86s-1.27.29-1.57.33-.31-.07-.38-.23-.38-.9-.38-.9L19.73,8.15c-.3.27-.59.06-.53-.26S20,4.18,20,4.18l-1.09.65c-.28.16-.42.14-.57-.13s-1.15-2.29-1.15-2.29h0s-1,2-1.16,2.29-.29.29-.56.13l-1.09-.65s.74,3.42.79,3.71-.24.53-.53.26c0,0-1.58-1.74-1.58-1.74l-.38.9a.32.32,0,0,1-.39.23c-.3,0-1.61-.33-1.61-.33s.53,1.7.57,1.86a.39.39,0,0,1-.19.54l-.19.09Z" transform="translate(0 -0.99)"/><path class="cls-1" d="M10.86,9.7l-.29.15,3,2.62c.1.09.29.16.14.6s-.35,1-.35,1,2.71-.55,3-.62.53,0,.53.33S16.81,17,16.81,17h.74s-.12-2.9-.12-3.19.25-.39.54-.33,3,.62,3,.62-.21-.58-.36-1,.05-.51.15-.6,3-2.62,3-2.62l-.3-.15Z" transform="translate(0 -0.99)"/><path class="cls-1" d="M17.55,17s-.12-2.9-.12-3.19.25-.39.54-.33,3,.62,3,.62-.21-.58-.36-1,.05-.51.15-.6,3-2.62,3-2.62l-.48-.24a.4.4,0,0,1-.2-.54c0-.16.53-1.86.53-1.86s-1.27.29-1.57.33-.31-.07-.38-.23-.38-.9-.38-.9L19.73,8.15c-.3.27-.59.06-.53-.26S20,4.18,20,4.18l-1.09.65c-.28.16-.42.14-.57-.13s-1.15-2.29-1.15-2.29h0s-1,2-1.16,2.29-.29.29-.56.13l-1.09-.65s.74,3.42.79,3.71-.24.53-.53.26c0,0-1.58-1.74-1.58-1.74l-.38.9a.32.32,0,0,1-.39.23c-.3,0-1.61-.33-1.61-.33s.53,1.7.57,1.86a.39.39,0,0,1-.19.54l-.48.24,3,2.62c.1.09.29.16.14.6s-.35,1-.35,1,2.71-.55,3-.62.53,0,.53.33S16.81,17,16.81,17Z" transform="translate(0 -0.99)"/><rect class="cls-1" x="25.81" y="0.1" width="8.6" height="17.22"/><path class="cls-2" d="M198,3.43A1.71,1.71,0,0,0,196.18,2C194.65,2,194,3.36,194,4.73s.64,2.72,2.17,2.72A1.84,1.84,0,0,0,198,5.58h1.22a2.93,2.93,0,0,1-3,2.89,3.44,3.44,0,0,1-3.41-3.74A3.44,3.44,0,0,1,196.18,1a2.79,2.79,0,0,1,3,2.44Z" transform="translate(0 -0.99)"/><path class="cls-2" d="M200,5.71a2.61,2.61,0,1,1,5.22,0,2.61,2.61,0,1,1-5.22,0Zm4.08,0c0-.89-.45-1.82-1.47-1.82s-1.47.93-1.47,1.82.45,1.83,1.47,1.83S204.12,6.61,204.12,5.71Z" transform="translate(0 -0.99)"/><path class="cls-2" d="M206.29,3.13h1.07v.72h0A1.7,1.7,0,0,1,209,3a1.46,1.46,0,0,1,1.45.86A1.87,1.87,0,0,1,212.05,3a1.52,1.52,0,0,1,1.73,1.74V8.3h-1.14v-3c0-.82,0-1.39-.94-1.39s-1.1.51-1.1,1.38v3h-1.14V5c0-.71-.22-1.09-.91-1.09a1.19,1.19,0,0,0-1.12,1.34V8.3h-1.14Z" transform="translate(0 -0.99)"/><path class="cls-2" d="M215.07,3.13h1.08v.72h0A1.73,1.73,0,0,1,217.77,3a1.47,1.47,0,0,1,1.45.86A1.84,1.84,0,0,1,220.83,3a1.52,1.52,0,0,1,1.73,1.74V8.3h-1.14v-3c0-.82,0-1.39-.94-1.39s-1.09.51-1.09,1.38v3h-1.14V5c0-.71-.22-1.09-.91-1.09a1.2,1.2,0,0,0-1.13,1.34V8.3h-1.14Z" transform="translate(0 -0.99)"/><path class="cls-2" d="M223.86,1.16H225V2.24h-1.14Zm0,2H225V8.3h-1.14Z" transform="translate(0 -0.99)"/><path class="cls-2" d="M227.16,6.64c.06.66.56.9,1.17.9.43,0,1.18-.09,1.15-.68s-.86-.67-1.69-.86-1.66-.48-1.66-1.53S227.35,3,228.29,3s2,.44,2.16,1.59h-1.19c-.1-.54-.55-.69-1-.69-.33,0-.94.08-.94.53s.84.64,1.68.83,1.67.49,1.67,1.51c0,1.23-1.24,1.68-2.31,1.68-1.3,0-2.27-.58-2.29-1.8Z" transform="translate(0 -0.99)"/><path class="cls-2" d="M232.48,6.64c.06.66.56.9,1.17.9.43,0,1.18-.09,1.15-.68s-.86-.67-1.69-.86-1.65-.48-1.65-1.53S232.67,3,233.61,3s2,.44,2.16,1.59h-1.19c-.1-.54-.55-.69-1.05-.69-.33,0-.93.08-.93.53s.83.64,1.67.83,1.67.49,1.67,1.51c0,1.23-1.24,1.68-2.31,1.68-1.3,0-2.26-.58-2.28-1.8Z" transform="translate(0 -0.99)"/><path class="cls-2" d="M236.94,1.16h1.14V2.24h-1.14Zm0,2h1.14V8.3h-1.14Z" transform="translate(0 -0.99)"/><path class="cls-2" d="M239.13,5.71a2.61,2.61,0,1,1,5.22,0,2.61,2.61,0,1,1-5.22,0Zm4.08,0c0-.89-.45-1.82-1.47-1.82s-1.47.93-1.47,1.82.45,1.83,1.47,1.83S243.21,6.61,243.21,5.71Z" transform="translate(0 -0.99)"/><path class="cls-2" d="M245.37,3.13h1.08v.76l0,0A1.85,1.85,0,0,1,248.08,3a1.63,1.63,0,0,1,1.83,1.76V8.3h-1.14V5.05c0-.81-.34-1.16-1-1.16a1.26,1.26,0,0,0-1.25,1.36V8.3h-1.14Z" transform="translate(0 -0.99)"/><path class="cls-2" d="M258.76,8.3h-1.08V7.6h0a1.72,1.72,0,0,1-1.6.84c-1.63,0-2.42-1.21-2.42-2.76,0-1.87,1.11-2.69,2.24-2.69a2,2,0,0,1,1.72.81h0V1.16h1.14Zm-2.55-.76c1,0,1.45-.93,1.45-1.83,0-1.14-.55-1.82-1.43-1.82-1.07,0-1.45.95-1.45,1.88S255.22,7.54,256.21,7.54Z" transform="translate(0 -0.99)"/><path class="cls-2" d="M260.94,6a1.38,1.38,0,0,0,1.39,1.53,1.2,1.2,0,0,0,1.26-.86h1.08a2.26,2.26,0,0,1-2.34,1.76,2.45,2.45,0,0,1-2.52-2.72,2.5,2.5,0,1,1,4.93.29Zm2.66-.75a1.33,1.33,0,1,0-2.66,0Z" transform="translate(0 -0.99)"/><path class="cls-2" d="M268.43,1.16h1.13V8.3h-1.13Z" transform="translate(0 -0.99)"/><path class="cls-2" d="M275.2,7.15c0,.28.06.39.27.39a1.58,1.58,0,0,0,.28,0v.79a2.86,2.86,0,0,1-.72.13c-.46,0-.79-.16-.88-.63a2.65,2.65,0,0,1-1.79.63,1.57,1.57,0,0,1-1.77-1.51c0-1.29,1-1.5,2-1.61s1.55-.06,1.55-.73-.61-.7-1.07-.7c-.64,0-1.09.26-1.14.82h-1.14C270.86,3.38,272,3,273.13,3s2.07.41,2.07,1.5Zm-1.14-1.44a4.07,4.07,0,0,1-1.4.31c-.49.08-.93.26-.93.86s.65.66,1,.66,1.28-.26,1.28-1Z" transform="translate(0 -0.99)"/><path class="cls-2" d="M278.7,3.13h.85V2.7c0-1.32.69-1.54,1.43-1.54a3.21,3.21,0,0,1,.8.07v.89a1.93,1.93,0,0,0-.53-.06c-.31,0-.56.11-.56.54v.53h1V4h-1V8.3h-1.14V4h-.85Z" transform="translate(0 -0.99)"/><path class="cls-2" d="M282.12,5.71a2.61,2.61,0,1,1,5.22,0,2.61,2.61,0,1,1-5.22,0Zm4.08,0c0-.89-.45-1.82-1.47-1.82s-1.47.93-1.47,1.82.45,1.83,1.47,1.83S286.2,6.61,286.2,5.71Z" transform="translate(0 -0.99)"/><path class="cls-2" d="M288.37,3.13h1.08v.76l0,0A1.85,1.85,0,0,1,291.08,3a1.63,1.63,0,0,1,1.82,1.76V8.3h-1.13V5.05c0-.81-.34-1.16-1-1.16a1.26,1.26,0,0,0-1.25,1.36V8.3h-1.14Z" transform="translate(0 -0.99)"/><path class="cls-2" d="M297.65,4.86a1.09,1.09,0,0,0-1.18-1c-.59,0-1.42.31-1.42,1.88,0,.86.38,1.77,1.37,1.77a1.23,1.23,0,0,0,1.23-1.18h1.14a2.23,2.23,0,0,1-2.37,2.08,2.43,2.43,0,0,1-2.51-2.67A2.49,2.49,0,0,1,296.46,3a2.09,2.09,0,0,1,2.33,1.87Z" transform="translate(0 -0.99)"/><path class="cls-2" d="M299.34,3.13h.86V1.58h1.14V3.13h1V4h-1V6.74c0,.47,0,.71.55.71a1.91,1.91,0,0,0,.47,0v.88c-.25,0-.49.06-.73.06-1.19,0-1.41-.46-1.43-1.32V4h-.86Z" transform="translate(0 -0.99)"/><path class="cls-2" d="M303.28,1.16h1.14V2.24h-1.14Zm0,2h1.14V8.3h-1.14Z" transform="translate(0 -0.99)"/><path class="cls-2" d="M305.47,5.71a2.61,2.61,0,1,1,5.21,0,2.61,2.61,0,1,1-5.21,0Zm4.07,0c0-.89-.44-1.82-1.46-1.82s-1.47.93-1.47,1.82.45,1.83,1.47,1.83S309.54,6.61,309.54,5.71Z" transform="translate(0 -0.99)"/><path class="cls-2" d="M311.71,3.13h1.08v.76l0,0A1.85,1.85,0,0,1,314.42,3a1.63,1.63,0,0,1,1.83,1.76V8.3h-1.14V5.05c0-.81-.34-1.16-1-1.16a1.26,1.26,0,0,0-1.25,1.36V8.3h-1.14Z" transform="translate(0 -0.99)"/><path class="cls-2" d="M320.26,3.13h1.08v.7h0A1.73,1.73,0,0,1,323,3c1.63,0,2.42,1.24,2.42,2.75s-.7,2.7-2.23,2.7a2,2,0,0,1-1.73-.81h0v2.58h-1.14Zm2.55.76c-1,0-1.45.73-1.45,1.83s.53,1.82,1.45,1.82,1.43-.92,1.43-1.82S323.75,3.89,322.81,3.89Z" transform="translate(0 -0.99)"/><path class="cls-2" d="M330.93,8.3h-1.12V7.58h0a1.72,1.72,0,0,1-1.47.86c-1.34,0-1.92-.68-1.92-2V3.13h1.14V6.3c0,.91.36,1.24,1,1.24,1,0,1.27-.61,1.27-1.41v-3h1.14Z" transform="translate(0 -0.99)"/><path class="cls-2" d="M332.22,1.16h1.14V3.8h0A1.88,1.88,0,0,1,334.92,3c1.63,0,2.42,1.24,2.42,2.75s-.7,2.7-2.23,2.7a1.85,1.85,0,0,1-1.79-.85h0V8.3h-1.08Zm2.55,2.73c-1,0-1.45.73-1.45,1.83s.53,1.82,1.45,1.82,1.43-.92,1.43-1.82S335.71,3.89,334.77,3.89Z" transform="translate(0 -0.99)"/><path class="cls-2" d="M338.4,1.16h1.14V8.3H338.4Z" transform="translate(0 -0.99)"/><path class="cls-2" d="M340.84,1.16H342V2.24h-1.14Zm0,2H342V8.3h-1.14Z" transform="translate(0 -0.99)"/><path class="cls-2" d="M348.16,10.21H347V7.63h0a2,2,0,0,1-1.73.81c-1.53,0-2.23-1.31-2.23-2.7S343.83,3,345.46,3a1.73,1.73,0,0,1,1.6.84h0v-.7h1.08Zm-2.55-2.67c1,0,1.45-.74,1.45-1.82s-.5-1.83-1.45-1.83-1.43.89-1.43,1.83S344.57,7.54,345.61,7.54Z" transform="translate(0 -0.99)"/><path class="cls-2" d="M354,8.3h-1.12V7.58h0a1.74,1.74,0,0,1-1.47.86c-1.35,0-1.93-.68-1.93-2V3.13h1.14V6.3c0,.91.37,1.24,1,1.24.95,0,1.27-.61,1.27-1.41v-3H354Z" transform="translate(0 -0.99)"/><path class="cls-2" d="M356.15,6a1.38,1.38,0,0,0,1.39,1.53,1.2,1.2,0,0,0,1.26-.86h1.08a2.26,2.26,0,0,1-2.34,1.76A2.45,2.45,0,0,1,355,5.72,2.5,2.5,0,1,1,360,6Zm2.66-.75a1.33,1.33,0,1,0-2.66,0Z" transform="translate(0 -0.99)"/><path class="cls-2" d="M197.85,18.3h-1.08v-.7h0a1.72,1.72,0,0,1-1.6.84c-1.63,0-2.42-1.21-2.42-2.76,0-1.87,1.11-2.69,2.24-2.69a2,2,0,0,1,1.72.81h0V11.16h1.14Zm-2.55-.76c1,0,1.45-.93,1.45-1.83,0-1.14-.55-1.82-1.43-1.82-1.07,0-1.45.95-1.45,1.88S194.31,17.54,195.3,17.54Z" transform="translate(0 -0.99)"/><path class="cls-2" d="M203.68,18.3h-1.12v-.72h0a1.74,1.74,0,0,1-1.47.86c-1.35,0-1.93-.68-1.93-2V13.13h1.14V16.3c0,.91.37,1.24,1,1.24.95,0,1.27-.61,1.27-1.41v-3h1.14Z" transform="translate(0 -0.99)"/><path class="cls-2" d="M212.64,13.43A1.71,1.71,0,0,0,210.86,12c-1.53,0-2.17,1.35-2.17,2.72s.64,2.72,2.17,2.72a1.84,1.84,0,0,0,1.82-1.87h1.22a2.93,2.93,0,0,1-3,2.89,3.45,3.45,0,0,1-3.42-3.74A3.45,3.45,0,0,1,210.86,11a2.79,2.79,0,0,1,3,2.44Z" transform="translate(0 -0.99)"/><path class="cls-2" d="M219.25,17.15c0,.28.06.39.27.39a1.58,1.58,0,0,0,.28,0v.79a2.86,2.86,0,0,1-.72.13c-.46,0-.79-.16-.88-.63a2.65,2.65,0,0,1-1.79.63,1.57,1.57,0,0,1-1.77-1.51c0-1.29,1-1.5,2-1.61s1.55-.06,1.55-.73-.61-.7-1.07-.7c-.64,0-1.09.26-1.14.82h-1.14c.08-1.33,1.21-1.72,2.35-1.72s2.07.41,2.07,1.5Zm-1.14-1.44a4.07,4.07,0,0,1-1.4.31c-.49.08-.93.26-.93.86s.65.66,1.05.66,1.28-.26,1.28-1Z" transform="translate(0 -0.99)"/><path class="cls-2" d="M220.62,13.13h1.07v.76l0,0a1.84,1.84,0,0,1,1.6-.92,1.63,1.63,0,0,1,1.83,1.76V18.3H224V15.05c0-.81-.34-1.16-1-1.16a1.25,1.25,0,0,0-1.24,1.36V18.3h-1.14Z" transform="translate(0 -0.99)"/><path class="cls-2" d="M230.75,17.15c0,.28.06.39.27.39a1.58,1.58,0,0,0,.28,0v.79a2.86,2.86,0,0,1-.72.13.76.76,0,0,1-.87-.63,2.65,2.65,0,0,1-1.79.63,1.57,1.57,0,0,1-1.77-1.51c0-1.29,1-1.5,2-1.61s1.55-.06,1.55-.73-.61-.7-1.07-.7c-.64,0-1.09.26-1.14.82h-1.14c.08-1.33,1.21-1.72,2.35-1.72s2.06.41,2.06,1.5Zm-1.13-1.44a4.07,4.07,0,0,1-1.4.31c-.49.08-.93.26-.93.86s.65.66,1.05.66,1.28-.26,1.28-1Z" transform="translate(0 -0.99)"/><path class="cls-2" d="M236.93,18.3h-1.08v-.7h0a1.72,1.72,0,0,1-1.6.84c-1.63,0-2.42-1.21-2.42-2.76,0-1.87,1.11-2.69,2.24-2.69a2,2,0,0,1,1.72.81h0V11.16h1.14Zm-2.55-.76c1,0,1.45-.93,1.45-1.83,0-1.14-.55-1.82-1.43-1.82-1.07,0-1.45.95-1.45,1.88S233.39,17.54,234.38,17.54Z" transform="translate(0 -0.99)"/><path class="cls-2" d="M242.57,17.15c0,.28.06.39.27.39a1.58,1.58,0,0,0,.28,0v.79a2.86,2.86,0,0,1-.72.13c-.46,0-.79-.16-.88-.63a2.65,2.65,0,0,1-1.79.63A1.57,1.57,0,0,1,238,16.93c0-1.29,1-1.5,2-1.61s1.55-.06,1.55-.73-.61-.7-1.07-.7c-.64,0-1.09.26-1.14.82h-1.14c.08-1.33,1.21-1.72,2.35-1.72s2.07.41,2.07,1.5Zm-1.14-1.44A4.07,4.07,0,0,1,240,16c-.49.08-.93.26-.93.86s.65.66,1.05.66,1.28-.26,1.28-1Z" transform="translate(0 -0.99)"/><path class="cls-2" d="M50.44,1.16h3.15c2,0,2.43,1.32,2.43,2.21s-.4,2.2-2.43,2.19h-1.9V8.3H50.44Zm1.25,3.38h1.83a1.14,1.14,0,0,0,1.25-1.18c0-.94-.57-1.18-1.23-1.18H51.69Z" transform="translate(0 -0.99)"/><path class="cls-2" d="M61.47,8.3H60.35V7.58h0a1.74,1.74,0,0,1-1.47.86c-1.35,0-1.93-.68-1.93-2V3.13h1.14V6.3c0,.91.37,1.24,1,1.24.95,0,1.27-.61,1.27-1.41v-3h1.14Z" transform="translate(0 -0.99)"/><path class="cls-2" d="M62.77,1.16H63.9V3.8h0A1.85,1.85,0,0,1,65.46,3c1.63,0,2.42,1.24,2.42,2.75s-.7,2.7-2.23,2.7a1.83,1.83,0,0,1-1.78-.85h0V8.3H62.77Zm2.54,2.73c-1,0-1.44.73-1.44,1.83s.53,1.82,1.44,1.82,1.43-.92,1.43-1.82S66.25,3.89,65.31,3.89Z" transform="translate(0 -0.99)"/><path class="cls-2" d="M68.94,1.16h1.14V8.3H68.94Z" transform="translate(0 -0.99)"/><path class="cls-2" d="M71.39,1.16h1.13V2.24H71.39Zm0,2h1.13V8.3H71.39Z" transform="translate(0 -0.99)"/><path class="cls-2" d="M77.31,4.86a1.09,1.09,0,0,0-1.18-1c-.59,0-1.42.31-1.42,1.88,0,.86.38,1.77,1.37,1.77a1.23,1.23,0,0,0,1.23-1.18h1.14a2.23,2.23,0,0,1-2.37,2.08,2.43,2.43,0,0,1-2.51-2.67A2.49,2.49,0,0,1,76.12,3a2.09,2.09,0,0,1,2.33,1.87Z" transform="translate(0 -0.99)"/><path class="cls-2" d="M83.14,5.92C83.14,7,84,7.45,85,7.45s1.51-.54,1.51-1.08a.85.85,0,0,0-.59-.88c-.5-.19-1.15-.32-2.13-.59a1.81,1.81,0,0,1-1.58-1.81c0-1.43,1.32-2.1,2.61-2.1,1.49,0,2.74.79,2.74,2.28H86.26C86.2,2.35,85.58,2,84.72,2c-.58,0-1.31.21-1.31.93,0,.5.34.78.85.92.11,0,1.69.44,2.06.55a1.89,1.89,0,0,1,1.39,1.82c0,1.6-1.42,2.24-2.84,2.24-1.63,0-3-.78-3-2.55Z" transform="translate(0 -0.99)"/><path class="cls-2" d="M89.63,6A1.38,1.38,0,0,0,91,7.54a1.2,1.2,0,0,0,1.26-.86h1.08A2.26,2.26,0,0,1,91,8.44a2.45,2.45,0,0,1-2.53-2.72A2.5,2.5,0,1,1,93.43,6Zm2.66-.75a1.33,1.33,0,1,0-2.66,0Z" transform="translate(0 -0.99)"/><path class="cls-2" d="M94.4,3.13h1.07v1h0A1.67,1.67,0,0,1,97,3a2.71,2.71,0,0,1,.43,0v1.1a4.12,4.12,0,0,0-.48,0c-.79,0-1.4.63-1.4,1.77V8.3H94.4Z" transform="translate(0 -0.99)"/><path class="cls-2" d="M97.83,3.13h1.24l1.31,4h0l1.26-4h1.18L101,8.3H99.71Z" transform="translate(0 -0.99)"/><path class="cls-2" d="M103.64,1.16h1.14V2.24h-1.14Zm0,2h1.14V8.3h-1.14Z" transform="translate(0 -0.99)"/><path class="cls-2" d="M109.56,4.86a1.09,1.09,0,0,0-1.18-1c-.59,0-1.42.31-1.42,1.88,0,.86.38,1.77,1.37,1.77a1.23,1.23,0,0,0,1.23-1.18h1.14a2.23,2.23,0,0,1-2.37,2.08,2.43,2.43,0,0,1-2.51-2.67A2.49,2.49,0,0,1,108.37,3a2.09,2.09,0,0,1,2.33,1.87Z" transform="translate(0 -0.99)"/><path class="cls-2" d="M112.6,6A1.38,1.38,0,0,0,114,7.54a1.2,1.2,0,0,0,1.26-.86h1.08A2.26,2.26,0,0,1,114,8.44a2.45,2.45,0,0,1-2.53-2.72A2.5,2.5,0,1,1,116.4,6Zm2.66-.75a1.33,1.33,0,1,0-2.66,0Z" transform="translate(0 -0.99)"/><path class="cls-2" d="M125,3.43A1.71,1.71,0,0,0,123.25,2c-1.53,0-2.17,1.35-2.17,2.72s.64,2.72,2.17,2.72a1.84,1.84,0,0,0,1.82-1.87h1.22a2.93,2.93,0,0,1-3,2.89,3.45,3.45,0,0,1-3.42-3.74A3.45,3.45,0,0,1,123.25,1a2.79,2.79,0,0,1,3,2.44Z" transform="translate(0 -0.99)"/><path class="cls-2" d="M127.11,5.71a2.61,2.61,0,1,1,5.22,0,2.61,2.61,0,1,1-5.22,0Zm4.08,0c0-.89-.45-1.82-1.47-1.82s-1.47.93-1.47,1.82.45,1.83,1.47,1.83S131.19,6.61,131.19,5.71Z" transform="translate(0 -0.99)"/><path class="cls-2" d="M133.36,3.13h1.08v.72h0A1.73,1.73,0,0,1,136.06,3a1.45,1.45,0,0,1,1.44.86A1.87,1.87,0,0,1,139.12,3a1.52,1.52,0,0,1,1.73,1.74V8.3h-1.14v-3c0-.82-.05-1.39-.94-1.39s-1.1.51-1.1,1.38v3h-1.13V5c0-.71-.23-1.09-.91-1.09a1.2,1.2,0,0,0-1.13,1.34V8.3h-1.14Z" transform="translate(0 -0.99)"/><path class="cls-2" d="M142.14,3.13h1.07v.72h0A1.73,1.73,0,0,1,144.83,3a1.46,1.46,0,0,1,1.45.86A1.87,1.87,0,0,1,147.9,3a1.52,1.52,0,0,1,1.73,1.74V8.3h-1.14v-3c0-.82-.05-1.39-.94-1.39s-1.1.51-1.1,1.38v3h-1.14V5c0-.71-.22-1.09-.91-1.09a1.2,1.2,0,0,0-1.13,1.34V8.3h-1.13Z" transform="translate(0 -0.99)"/><path class="cls-2" d="M150.93,1.16h1.14V2.24h-1.14Zm0,2h1.14V8.3h-1.14Z" transform="translate(0 -0.99)"/><path class="cls-2" d="M154.23,6.64c.06.66.55.9,1.17.9.42,0,1.17-.09,1.14-.68s-.86-.67-1.68-.86-1.66-.48-1.66-1.53S154.42,3,155.36,3a1.9,1.9,0,0,1,2.15,1.59h-1.19c-.1-.54-.55-.69-1-.69-.33,0-.93.08-.93.53s.83.64,1.67.83,1.67.49,1.67,1.51c0,1.23-1.24,1.68-2.31,1.68-1.29,0-2.26-.58-2.28-1.8Z" transform="translate(0 -0.99)"/><path class="cls-2" d="M159.55,6.64c.06.66.56.9,1.17.9.43,0,1.18-.09,1.15-.68S161,6.19,160.18,6s-1.66-.48-1.66-1.53S159.74,3,160.68,3s2,.44,2.16,1.59h-1.19c-.1-.54-.55-.69-1.05-.69-.33,0-.94.08-.94.53s.84.64,1.68.83S163,5.74,163,6.76c0,1.23-1.24,1.68-2.31,1.68-1.3,0-2.27-.58-2.29-1.8Z" transform="translate(0 -0.99)"/><path class="cls-2" d="M164,1.16h1.13V2.24H164Zm0,2h1.13V8.3H164Z" transform="translate(0 -0.99)"/><path class="cls-2" d="M166.19,5.71a2.61,2.61,0,1,1,5.22,0,2.61,2.61,0,1,1-5.22,0Zm4.08,0c0-.89-.45-1.82-1.47-1.82s-1.47.93-1.47,1.82.45,1.83,1.47,1.83S170.27,6.61,170.27,5.71Z" transform="translate(0 -0.99)"/><path class="cls-2" d="M172.44,3.13h1.08v.76l0,0A1.85,1.85,0,0,1,175.15,3,1.63,1.63,0,0,1,177,4.75V8.3h-1.14V5.05c0-.81-.34-1.16-1-1.16a1.26,1.26,0,0,0-1.25,1.36V8.3h-1.14Z" transform="translate(0 -0.99)"/><path class="cls-2" d="M50,15.71a2.61,2.61,0,1,1,5.22,0,2.61,2.61,0,1,1-5.22,0Zm4.08,0c0-.89-.45-1.82-1.47-1.82s-1.47.93-1.47,1.82.45,1.83,1.47,1.83S54.12,16.61,54.12,15.71Z" transform="translate(0 -0.99)"/><path class="cls-2" d="M55.72,13.13h.84V12.7c0-1.32.69-1.54,1.43-1.54a3.21,3.21,0,0,1,.8.07v.89a1.93,1.93,0,0,0-.53-.06c-.31,0-.56.11-.56.54v.53h1V14h-1V18.3H56.56V14h-.84Z" transform="translate(0 -0.99)"/><path class="cls-2" d="M67.13,13.43A1.71,1.71,0,0,0,65.35,12c-1.53,0-2.17,1.35-2.17,2.72s.64,2.72,2.17,2.72a1.84,1.84,0,0,0,1.82-1.87h1.22a2.93,2.93,0,0,1-3,2.89,3.44,3.44,0,0,1-3.41-3.74A3.44,3.44,0,0,1,65.35,11a2.79,2.79,0,0,1,3,2.44Z" transform="translate(0 -0.99)"/><path class="cls-2" d="M73.74,17.15c0,.28.06.39.27.39a1.58,1.58,0,0,0,.28,0v.79a2.86,2.86,0,0,1-.72.13c-.46,0-.79-.16-.88-.63a2.65,2.65,0,0,1-1.79.63,1.57,1.57,0,0,1-1.77-1.51c0-1.29,1-1.5,2-1.61s1.55-.06,1.55-.73-.61-.7-1.07-.7c-.64,0-1.09.26-1.14.82H69.32C69.4,13.38,70.53,13,71.67,13s2.07.41,2.07,1.5ZM72.6,15.71a4.07,4.07,0,0,1-1.4.31c-.49.08-.93.26-.93.86s.65.66,1,.66,1.28-.26,1.28-1Z" transform="translate(0 -0.99)"/><path class="cls-2" d="M75.11,13.13h1.08v.76l0,0a1.85,1.85,0,0,1,1.6-.92,1.63,1.63,0,0,1,1.83,1.76V18.3H78.5V15.05c0-.81-.34-1.16-1-1.16a1.25,1.25,0,0,0-1.24,1.36V18.3H75.11Z" transform="translate(0 -0.99)"/><path class="cls-2" d="M85.25,17.15c0,.28.06.39.27.39a1.42,1.42,0,0,0,.27,0v.79a2.78,2.78,0,0,1-.71.13c-.46,0-.79-.16-.88-.63a2.65,2.65,0,0,1-1.79.63,1.57,1.57,0,0,1-1.77-1.51c0-1.29,1-1.5,2-1.61s1.55-.06,1.55-.73-.61-.7-1.07-.7c-.64,0-1.09.26-1.14.82H80.83C80.91,13.38,82,13,83.18,13s2.07.41,2.07,1.5Zm-1.14-1.44a4.07,4.07,0,0,1-1.4.31c-.49.08-.93.26-.93.86s.65.66,1,.66,1.28-.26,1.28-1Z" transform="translate(0 -0.99)"/><path class="cls-2" d="M91.42,18.3H90.34v-.7h0a1.72,1.72,0,0,1-1.6.84c-1.63,0-2.42-1.21-2.42-2.76,0-1.87,1.11-2.69,2.24-2.69a2,2,0,0,1,1.72.81h0V11.16h1.14Zm-2.55-.76c1,0,1.45-.93,1.45-1.83,0-1.14-.55-1.82-1.43-1.82-1.07,0-1.45.95-1.45,1.88S87.88,17.54,88.87,17.54Z" transform="translate(0 -0.99)"/><path class="cls-2" d="M97.06,17.15c0,.28.06.39.27.39a1.58,1.58,0,0,0,.28,0v.79a2.86,2.86,0,0,1-.72.13c-.46,0-.79-.16-.88-.63a2.65,2.65,0,0,1-1.79.63,1.57,1.57,0,0,1-1.77-1.51c0-1.29,1-1.5,2-1.61S96,15.26,96,14.59s-.61-.7-1.07-.7c-.64,0-1.09.26-1.14.82H92.64C92.72,13.38,93.85,13,95,13s2.07.41,2.07,1.5Zm-1.14-1.44a4.07,4.07,0,0,1-1.4.31c-.49.08-.93.26-.93.86s.65.66,1,.66,1.28-.26,1.28-1Z" transform="translate(0 -0.99)"/></g></g></svg>