<svg id="visual" viewBox="0 0 1920 600" width="1920" height="600" xmlns="http://www.w3.org/2000/svg" xmlns:xlink="http://www.w3.org/1999/xlink" version="1.1"><path d="M0 203L83 203L83 206L167 206L167 221L250 221L250 233L334 233L334 222L417 222L417 224L501 224L501 233L584 233L584 202L668 202L668 242L751 242L751 231L835 231L835 214L918 214L918 240L1002 240L1002 223L1085 223L1085 207L1169 207L1169 217L1252 217L1252 232L1336 232L1336 234L1419 234L1419 242L1503 242L1503 241L1586 241L1586 205L1670 205L1670 235L1753 235L1753 210L1837 210L1837 221L1920 221L1920 232L1920 601L1920 601L1837 601L1837 601L1753 601L1753 601L1670 601L1670 601L1586 601L1586 601L1503 601L1503 601L1419 601L1419 601L1336 601L1336 601L1252 601L1252 601L1169 601L1169 601L1085 601L1085 601L1002 601L1002 601L918 601L918 601L835 601L835 601L751 601L751 601L668 601L668 601L584 601L584 601L501 601L501 601L417 601L417 601L334 601L334 601L250 601L250 601L167 601L167 601L83 601L83 601L0 601Z" fill="#18225a"></path><path d="M0 318L83 318L83 321L167 321L167 330L250 330L250 322L334 322L334 336L417 336L417 319L501 319L501 332L584 332L584 337L668 337L668 345L751 345L751 340L835 340L835 340L918 340L918 347L1002 347L1002 329L1085 329L1085 326L1169 326L1169 328L1252 328L1252 347L1336 347L1336 328L1419 328L1419 341L1503 341L1503 328L1586 328L1586 341L1670 341L1670 344L1753 344L1753 325L1837 325L1837 322L1920 322L1920 331L1920 601L1920 601L1837 601L1837 601L1753 601L1753 601L1670 601L1670 601L1586 601L1586 601L1503 601L1503 601L1419 601L1419 601L1336 601L1336 601L1252 601L1252 601L1169 601L1169 601L1085 601L1085 601L1002 601L1002 601L918 601L918 601L835 601L835 601L751 601L751 601L668 601L668 601L584 601L584 601L501 601L501 601L417 601L417 601L334 601L334 601L250 601L250 601L167 601L167 601L83 601L83 601L0 601Z" fill="#004068"></path><path d="M0 463L83 463L83 447L167 447L167 453L250 453L250 444L334 444L334 458L417 458L417 451L501 451L501 457L584 457L584 444L668 444L668 458L751 458L751 455L835 455L835 447L918 447L918 445L1002 445L1002 450L1085 450L1085 442L1169 442L1169 444L1252 444L1252 435L1336 435L1336 451L1419 451L1419 451L1503 451L1503 445L1586 445L1586 462L1670 462L1670 449L1753 449L1753 435L1837 435L1837 447L1920 447L1920 455L1920 601L1920 601L1837 601L1837 601L1753 601L1753 601L1670 601L1670 601L1586 601L1586 601L1503 601L1503 601L1419 601L1419 601L1336 601L1336 601L1252 601L1252 601L1169 601L1169 601L1085 601L1085 601L1002 601L1002 601L918 601L918 601L835 601L835 601L751 601L751 601L668 601L668 601L584 601L584 601L501 601L501 601L417 601L417 601L334 601L334 601L250 601L250 601L167 601L167 601L83 601L83 601L0 601Z" fill="#035864"></path></svg>