<?xml version="1.0" encoding="utf-8"?>
<svg viewBox="-9.271 -42.813 233.169 56.748" xmlns="http://www.w3.org/2000/svg">
  <defs>
    <style>.cls-1{fill:#ea0029;}.cls-2{fill:#231f20;}</style>
  </defs>
  <g id="Layer_2" data-name="Layer 2" transform="matrix(1, 0, 0, 1, 0, -22)">
    <g id="Layer_1-2" data-name="Layer 1">
      <rect class="cls-1" y="0.1" width="8.6" height="17.22"/>
      <path class="cls-1" d="M23.49,9.7l-.18-.09a.4.4,0,0,1-.2-.54c0-.16.53-1.86.53-1.86s-1.27.29-1.57.33-.31-.07-.38-.23-.38-.9-.38-.9L19.73,8.15c-.3.27-.59.06-.53-.26S20,4.18,20,4.18l-1.09.65c-.28.16-.42.14-.57-.13s-1.15-2.29-1.15-2.29h0s-1,2-1.16,2.29-.29.29-.56.13l-1.09-.65s.74,3.42.79,3.71-.24.53-.53.26c0,0-1.58-1.74-1.58-1.74l-.38.9a.32.32,0,0,1-.39.23c-.3,0-1.61-.33-1.61-.33s.53,1.7.57,1.86a.39.39,0,0,1-.19.54l-.19.09Z" transform="translate(0 -0.99)"/>
      <path class="cls-1" d="M10.86,9.7l-.29.15,3,2.62c.1.09.29.16.14.6s-.35,1-.35,1,2.71-.55,3-.62.53,0,.53.33S16.81,17,16.81,17h.74s-.12-2.9-.12-3.19.25-.39.54-.33,3,.62,3,.62-.21-.58-.36-1,.05-.51.15-.6,3-2.62,3-2.62l-.3-.15Z" transform="translate(0 -0.99)"/>
      <path class="cls-1" d="M17.55,17s-.12-2.9-.12-3.19.25-.39.54-.33,3,.62,3,.62-.21-.58-.36-1,.05-.51.15-.6,3-2.62,3-2.62l-.48-.24a.4.4,0,0,1-.2-.54c0-.16.53-1.86.53-1.86s-1.27.29-1.57.33-.31-.07-.38-.23-.38-.9-.38-.9L19.73,8.15c-.3.27-.59.06-.53-.26S20,4.18,20,4.18l-1.09.65c-.28.16-.42.14-.57-.13s-1.15-2.29-1.15-2.29h0s-1,2-1.16,2.29-.29.29-.56.13l-1.09-.65s.74,3.42.79,3.71-.24.53-.53.26c0,0-1.58-1.74-1.58-1.74l-.38.9a.32.32,0,0,1-.39.23c-.3,0-1.61-.33-1.61-.33s.53,1.7.57,1.86a.39.39,0,0,1-.19.54l-.48.24,3,2.62c.1.09.29.16.14.6s-.35,1-.35,1,2.71-.55,3-.62.53,0,.53.33S16.81,17,16.81,17Z" transform="translate(0 -0.99)"/>
      <rect class="cls-1" x="25.81" y="0.1" width="8.6" height="17.22"/>
      <path class="cls-2" d="M 55 14.44 C 54.857 13.563 54.066 12.941 53.18 13.01 C 51.65 13.01 51 14.37 51 15.74 C 51 17.11 51.64 18.46 53.17 18.46 C 54.194 18.455 55.017 17.614 55 16.59 L 56.22 16.59 C 56.198 18.22 54.85 19.519 53.22 19.48 C 51.208 19.47 49.635 17.744 49.81 15.74 C 49.642 13.756 51.189 12.043 53.18 12.01 C 54.673 11.886 55.997 12.963 56.18 14.45 Z"/>
      <path class="cls-2" d="M 57 16.72 C 57 14.711 59.175 13.455 60.915 14.46 C 61.723 14.926 62.22 15.788 62.22 16.72 C 62.22 18.729 60.045 19.985 58.305 18.98 C 57.497 18.514 57 17.652 57 16.72 Z M 61.08 16.72 C 61.08 15.83 60.63 14.9 59.61 14.9 C 58.59 14.9 58.14 15.83 58.14 16.72 C 58.14 17.61 58.59 18.55 59.61 18.55 C 60.63 18.55 61.12 17.62 61.12 16.72 Z"/>
      <path class="cls-2" d="M 63.29 14.14 L 64.36 14.14 L 64.36 14.86 L 64.36 14.86 C 64.692 14.278 65.334 13.946 66 14.01 C 66.617 13.96 67.198 14.305 67.45 14.87 C 67.799 14.326 68.404 14.001 69.05 14.01 C 70.067 13.855 70.941 14.734 70.78 15.75 L 70.78 19.31 L 69.64 19.31 L 69.64 16.31 C 69.64 15.49 69.64 14.92 68.7 14.92 C 67.76 14.92 67.6 15.43 67.6 16.3 L 67.6 19.3 L 66.46 19.3 L 66.46 16.01 C 66.46 15.3 66.24 14.92 65.55 14.92 C 64.858 14.955 64.342 15.572 64.43 16.26 L 64.43 19.31 L 63.29 19.31 Z"/>
      <path class="cls-2" d="M 72.07 14.14 L 73.15 14.14 L 73.15 14.86 L 73.15 14.86 C 73.484 14.291 74.112 13.961 74.77 14.01 C 75.386 13.964 75.965 14.307 76.22 14.87 C 76.567 14.319 77.179 13.992 77.83 14.01 C 78.847 13.855 79.721 14.734 79.56 15.75 L 79.56 19.31 L 78.42 19.31 L 78.42 16.31 C 78.42 15.49 78.42 14.92 77.48 14.92 C 76.54 14.92 76.39 15.43 76.39 16.3 L 76.39 19.3 L 75.25 19.3 L 75.25 16.01 C 75.25 15.3 75.03 14.92 74.34 14.92 C 73.647 14.956 73.128 15.571 73.21 16.26 L 73.21 19.31 L 72.07 19.31 Z"/>
      <path class="cls-2" d="M 80.86 12.17 L 82 12.17 L 82 13.25 L 80.86 13.25 Z M 80.86 14.17 L 82 14.17 L 82 19.31 L 80.86 19.31 Z"/>
      <path class="cls-2" d="M 84.16 17.65 C 84.22 18.31 84.72 18.55 85.33 18.55 C 85.76 18.55 86.51 18.46 86.48 17.87 C 86.45 17.28 85.62 17.2 84.79 17.01 C 83.96 16.82 83.13 16.53 83.13 15.48 C 83.13 14.43 84.35 14.01 85.29 14.01 C 86.23 14.01 87.29 14.45 87.45 15.6 L 86.26 15.6 C 86.16 15.06 85.71 14.91 85.26 14.91 C 84.93 14.91 84.32 14.99 84.32 15.44 C 84.32 15.89 85.16 16.08 86 16.27 C 86.84 16.46 87.67 16.76 87.67 17.78 C 87.67 19.01 86.43 19.46 85.36 19.46 C 84.06 19.46 83.09 18.88 83.07 17.66 Z"/>
      <path class="cls-2" d="M 89.48 17.65 C 89.54 18.31 90.04 18.55 90.65 18.55 C 91.08 18.55 91.83 18.46 91.8 17.87 C 91.77 17.28 90.94 17.2 90.11 17.01 C 89.28 16.82 88.46 16.53 88.46 15.48 C 88.46 14.43 89.67 14.01 90.61 14.01 C 91.55 14.01 92.61 14.45 92.77 15.6 L 91.58 15.6 C 91.48 15.06 91.03 14.91 90.53 14.91 C 90.2 14.91 89.6 14.99 89.6 15.44 C 89.6 15.89 90.43 16.08 91.27 16.27 C 92.11 16.46 92.94 16.76 92.94 17.78 C 92.94 19.01 91.7 19.46 90.63 19.46 C 89.33 19.46 88.37 18.88 88.35 17.66 Z"/>
      <path class="cls-2" d="M 93.94 12.17 L 95.08 12.17 L 95.08 13.25 L 93.94 13.25 Z M 93.94 14.17 L 95.08 14.17 L 95.08 19.31 L 93.94 19.31 Z"/>
      <path class="cls-2" d="M 96.13 16.72 C 96.13 14.711 98.305 13.455 100.045 14.46 C 100.853 14.926 101.35 15.788 101.35 16.72 C 101.35 18.729 99.175 19.985 97.435 18.98 C 96.627 18.514 96.13 17.652 96.13 16.72 Z M 100.21 16.72 C 100.21 15.83 99.76 14.9 98.74 14.9 C 97.72 14.9 97.27 15.83 97.27 16.72 C 97.27 17.61 97.72 18.55 98.74 18.55 C 99.76 18.55 100.21 17.62 100.21 16.72 Z"/>
      <path class="cls-2" d="M 102.37 14.14 L 103.45 14.14 L 103.45 14.9 L 103.45 14.9 C 103.794 14.332 104.416 13.993 105.08 14.01 C 106.112 13.878 107.001 14.734 106.91 15.77 L 106.91 19.31 L 105.77 19.31 L 105.77 16.06 C 105.77 15.25 105.43 14.9 104.77 14.9 C 104.037 14.904 103.462 15.529 103.52 16.26 L 103.52 19.31 L 102.38 19.31 Z"/>
      <path class="cls-2" d="M 115.76 19.31 L 114.68 19.31 L 114.68 18.61 L 114.68 18.61 C 114.349 19.17 113.729 19.495 113.08 19.45 C 111.45 19.45 110.66 18.24 110.66 16.69 C 110.66 14.82 111.77 14 112.9 14 C 113.573 13.963 114.22 14.267 114.62 14.81 L 114.62 14.81 L 114.62 12.17 L 115.76 12.17 Z M 113.21 18.55 C 114.21 18.55 114.66 17.62 114.66 16.72 C 114.66 15.58 114.11 14.9 113.23 14.9 C 112.16 14.9 111.78 15.85 111.78 16.78 C 111.78 17.71 112.22 18.55 113.21 18.55 Z"/>
      <path class="cls-2" d="M 117.94 17.01 C 117.85 17.834 118.501 18.551 119.33 18.54 C 119.902 18.592 120.43 18.231 120.59 17.68 L 121.67 17.68 C 121.427 18.761 120.436 19.506 119.33 19.44 C 117.836 19.492 116.644 18.206 116.81 16.72 C 116.621 14.805 118.577 13.403 120.33 14.198 C 121.405 14.685 121.993 15.857 121.74 17.01 Z M 120.6 16.26 C 120.6 15.236 119.492 14.596 118.605 15.108 C 118.193 15.346 117.94 15.785 117.94 16.26 Z"/>
      <path class="cls-2" d="M 125.43 12.17 L 126.56 12.17 L 126.56 19.31 L 125.43 19.31 Z"/>
      <path class="cls-2" d="M 132.2 18.16 C 132.2 18.44 132.26 18.55 132.47 18.55 C 132.563 18.558 132.657 18.558 132.75 18.55 L 132.75 19.34 C 132.517 19.414 132.275 19.458 132.03 19.47 C 131.57 19.47 131.24 19.31 131.15 18.84 C 130.652 19.264 130.014 19.488 129.36 19.47 C 128.44 19.589 127.618 18.887 127.59 17.96 C 127.59 16.67 128.59 16.46 129.59 16.35 C 130.59 16.24 131.14 16.29 131.14 15.62 C 131.14 14.95 130.53 14.92 130.07 14.92 C 129.43 14.92 128.98 15.18 128.93 15.74 L 127.79 15.74 C 127.86 14.39 129 14.01 130.13 14.01 C 131.26 14.01 132.2 14.42 132.2 15.51 Z M 131.06 16.72 C 130.615 16.905 130.141 17.01 129.66 17.03 C 129.17 17.11 128.73 17.29 128.73 17.89 C 128.73 18.49 129.38 18.55 129.73 18.55 C 130.08 18.55 131.01 18.29 131.01 17.55 Z"/>
      <path class="cls-2" d="M 135.7 14.14 L 136.55 14.14 L 136.55 13.71 C 136.55 12.39 137.24 12.17 137.98 12.17 C 138.249 12.16 138.517 12.183 138.78 12.24 L 138.78 13.13 C 138.607 13.086 138.429 13.065 138.25 13.07 C 137.94 13.07 137.69 13.18 137.69 13.61 L 137.69 14.14 L 138.69 14.14 L 138.69 15.01 L 137.69 15.01 L 137.69 19.31 L 136.55 19.31 L 136.55 15.01 L 135.7 15.01 Z"/>
      <path class="cls-2" d="M 139.12 16.72 C 139.12 14.711 141.295 13.455 143.035 14.46 C 143.843 14.926 144.34 15.788 144.34 16.72 C 144.34 18.729 142.165 19.985 140.425 18.98 C 139.617 18.514 139.12 17.652 139.12 16.72 Z M 143.2 16.72 C 143.2 15.83 142.75 14.9 141.73 14.9 C 140.71 14.9 140.26 15.83 140.26 16.72 C 140.26 17.61 140.71 18.55 141.73 18.55 C 142.75 18.55 143.2 17.62 143.2 16.72 Z"/>
      <path class="cls-2" d="M 145.37 14.14 L 146.45 14.14 L 146.45 14.9 L 146.45 14.9 C 146.794 14.332 147.416 13.993 148.08 14.01 C 149.108 13.885 149.99 14.738 149.9 15.77 L 149.9 19.31 L 148.77 19.31 L 148.77 16.06 C 148.77 15.25 148.43 14.9 147.77 14.9 C 147.037 14.904 146.462 15.529 146.52 16.26 L 146.52 19.31 L 145.38 19.31 Z"/>
      <path class="cls-2" d="M 154.65 15.87 C 154.602 15.267 154.073 14.818 153.47 14.87 C 152.88 14.87 152.05 15.18 152.05 16.75 C 152.05 17.61 152.43 18.52 153.42 18.52 C 154.08 18.521 154.623 18 154.65 17.34 L 155.79 17.34 C 155.71 18.569 154.649 19.5 153.42 19.42 C 151.947 19.476 150.763 18.217 150.91 16.75 C 150.758 15.254 151.957 13.966 153.46 14.01 C 154.624 13.87 155.675 14.714 155.79 15.88 Z"/>
      <path class="cls-2" d="M 156.34 14.14 L 157.2 14.14 L 157.2 12.59 L 158.34 12.59 L 158.34 14.14 L 159.34 14.14 L 159.34 15.01 L 158.34 15.01 L 158.34 17.75 C 158.34 18.22 158.34 18.46 158.89 18.46 C 159.046 18.479 159.204 18.479 159.36 18.46 L 159.36 19.34 C 159.11 19.34 158.87 19.4 158.63 19.4 C 157.44 19.4 157.22 18.94 157.2 18.08 L 157.2 15.01 L 156.34 15.01 Z"/>
      <path class="cls-2" d="M 160.28 12.17 L 161.42 12.17 L 161.42 13.25 L 160.28 13.25 Z M 160.28 14.17 L 161.42 14.17 L 161.42 19.31 L 160.28 19.31 Z"/>
      <path class="cls-2" d="M 162.47 16.72 C 162.346 14.715 164.439 13.327 166.238 14.222 C 167.177 14.689 167.745 15.673 167.68 16.72 C 167.804 18.725 165.711 20.113 163.912 19.218 C 162.973 18.751 162.405 17.767 162.47 16.72 Z M 166.54 16.72 C 166.54 15.83 166.1 14.9 165.08 14.9 C 164.06 14.9 163.61 15.83 163.61 16.72 C 163.61 17.61 164.06 18.55 165.08 18.55 C 166.1 18.55 166.54 17.62 166.54 16.72 Z"/>
      <path class="cls-2" d="M 168.71 14.14 L 169.79 14.14 L 169.79 14.9 L 169.79 14.9 C 170.134 14.332 170.756 13.993 171.42 14.01 C 172.452 13.878 173.341 14.734 173.25 15.77 L 173.25 19.31 L 172.11 19.31 L 172.11 16.06 C 172.11 15.25 171.77 14.9 171.11 14.9 C 170.377 14.904 169.802 15.529 169.86 16.26 L 169.86 19.31 L 168.72 19.31 Z"/>
      <path class="cls-2" d="M 177.26 14.14 L 178.34 14.14 L 178.34 14.84 L 178.34 14.84 C 178.686 14.265 179.333 13.941 180 14.01 C 181.63 14.01 182.42 15.25 182.42 16.76 C 182.42 18.27 181.72 19.46 180.19 19.46 C 179.513 19.501 178.862 19.196 178.46 18.65 L 178.46 18.65 L 178.46 21.23 L 177.32 21.23 Z M 179.81 14.9 C 178.81 14.9 178.36 15.63 178.36 16.73 C 178.36 17.83 178.89 18.55 179.81 18.55 C 180.73 18.55 181.24 17.63 181.24 16.73 C 181.24 15.83 180.75 14.9 179.81 14.9 Z"/>
      <path class="cls-2" d="M 187.93 19.31 L 186.81 19.31 L 186.81 18.59 L 186.81 18.59 C 186.506 19.116 185.947 19.443 185.34 19.45 C 184 19.45 183.42 18.77 183.42 17.45 L 183.42 14.14 L 184.56 14.14 L 184.56 17.31 C 184.56 18.22 184.92 18.55 185.56 18.55 C 186.56 18.55 186.83 17.94 186.83 17.14 L 186.83 14.14 L 187.97 14.14 Z"/>
      <path class="cls-2" d="M 189.22 12.17 L 190.36 12.17 L 190.36 14.81 L 190.36 14.81 C 190.716 14.302 191.3 14.003 191.92 14.01 C 193.55 14.01 194.34 15.25 194.34 16.76 C 194.34 18.27 193.64 19.46 192.11 19.46 C 191.399 19.547 190.702 19.216 190.32 18.61 L 190.32 18.61 L 190.32 19.31 L 189.24 19.31 Z M 191.77 14.9 C 190.77 14.9 190.32 15.63 190.32 16.73 C 190.32 17.83 190.85 18.55 191.77 18.55 C 192.69 18.55 193.2 17.63 193.2 16.73 C 193.2 15.83 192.71 14.9 191.77 14.9 Z"/>
      <path class="cls-2" d="M 195.4 12.17 L 196.54 12.17 L 196.54 19.31 L 195.4 19.31 Z"/>
      <path class="cls-2" d="M 197.84 12.17 L 199 12.17 L 199 13.25 L 197.86 13.25 Z M 197.84 14.17 L 199 14.17 L 199 19.31 L 197.86 19.31 Z"/>
      <path class="cls-2" d="M 205.16 21.22 L 204 21.22 L 204 18.64 L 204 18.64 C 203.598 19.186 202.947 19.491 202.27 19.45 C 200.74 19.45 200.04 18.14 200.04 16.75 C 200.04 15.36 200.83 14.01 202.46 14.01 C 203.109 13.967 203.727 14.292 204.06 14.85 L 204.06 14.85 L 204.06 14.15 L 205.14 14.15 Z M 202.61 18.55 C 203.61 18.55 204.06 17.81 204.06 16.73 C 204.06 15.65 203.56 14.9 202.61 14.9 C 201.66 14.9 201.18 15.79 201.18 16.73 C 201.18 17.67 201.57 18.55 202.61 18.55 Z"/>
      <path class="cls-2" d="M 211 19.31 L 209.88 19.31 L 209.88 18.59 L 209.88 18.59 C 209.573 19.113 209.016 19.439 208.41 19.45 C 207.06 19.45 206.48 18.77 206.48 17.45 L 206.48 14.14 L 207.62 14.14 L 207.62 17.31 C 207.62 18.22 207.99 18.55 208.62 18.55 C 209.57 18.55 209.89 17.94 209.89 17.14 L 209.89 14.14 L 211 14.14 Z"/>
      <path class="cls-2" d="M 213.15 17.01 C 213.06 17.834 213.711 18.551 214.54 18.54 C 215.112 18.592 215.64 18.231 215.8 17.68 L 216.88 17.68 C 216.637 18.761 215.646 19.506 214.54 19.44 C 213.043 19.504 211.84 18.22 212 16.73 C 212.108 14.805 214.258 13.719 215.871 14.775 C 216.62 15.265 217.05 16.117 217 17.01 Z M 215.81 16.26 C 215.81 15.236 214.702 14.596 213.815 15.108 C 213.403 15.346 213.15 15.785 213.15 16.26 Z"/>
      <path class="cls-2" d="M 54.85 29.31 L 53.77 29.31 L 53.77 28.61 L 53.77 28.61 C 53.439 29.17 52.819 29.495 52.17 29.45 C 50.54 29.45 49.75 28.24 49.75 26.69 C 49.75 24.82 50.86 24 51.99 24 C 52.663 23.963 53.31 24.267 53.71 24.81 L 53.71 24.81 L 53.71 22.17 L 54.85 22.17 Z M 52.3 28.55 C 53.3 28.55 53.75 27.62 53.75 26.72 C 53.75 25.58 53.2 24.9 52.32 24.9 C 51.25 24.9 50.87 25.85 50.87 26.78 C 50.87 27.71 51.31 28.55 52.3 28.55 Z"/>
      <path class="cls-2" d="M 60.68 29.31 L 59.56 29.31 L 59.56 28.59 L 59.56 28.59 C 59.253 29.113 58.696 29.439 58.09 29.45 C 56.74 29.45 56.16 28.77 56.16 27.45 L 56.16 24.14 L 57.3 24.14 L 57.3 27.31 C 57.3 28.22 57.67 28.55 58.3 28.55 C 59.25 28.55 59.57 27.94 59.57 27.14 L 59.57 24.14 L 60.71 24.14 Z"/>
      <path class="cls-2" d="M 69.64 24.44 C 69.498 23.579 68.731 22.963 67.86 23.01 C 66.33 23.01 65.69 24.36 65.69 25.73 C 65.69 27.1 66.33 28.45 67.86 28.45 C 68.88 28.439 69.697 27.6 69.68 26.58 L 70.9 26.58 C 70.878 28.21 69.53 29.509 67.9 29.47 C 65.887 29.46 64.311 27.736 64.48 25.73 C 64.324 23.748 65.872 22.044 67.86 22.01 C 69.353 21.886 70.677 22.963 70.86 24.45 Z"/>
      <path class="cls-2" d="M 76.25 28.16 C 76.25 28.44 76.31 28.55 76.52 28.55 C 76.613 28.558 76.707 28.558 76.8 28.55 L 76.8 29.34 C 76.567 29.414 76.325 29.458 76.08 29.47 C 75.62 29.47 75.29 29.31 75.2 28.84 C 74.702 29.264 74.064 29.488 73.41 29.47 C 72.49 29.589 71.668 28.887 71.64 27.96 C 71.64 26.67 72.64 26.46 73.64 26.35 C 74.64 26.24 75.19 26.29 75.19 25.62 C 75.19 24.95 74.58 24.92 74.12 24.92 C 73.48 24.92 73.03 25.18 72.98 25.74 L 71.84 25.74 C 71.92 24.41 73.05 24.02 74.19 24.02 C 75.33 24.02 76.26 24.43 76.26 25.52 Z M 75.11 26.72 C 74.665 26.905 74.191 27.01 73.71 27.03 C 73.22 27.11 72.78 27.29 72.78 27.89 C 72.78 28.49 73.43 28.55 73.83 28.55 C 74.23 28.55 75.11 28.29 75.11 27.55 Z"/>
      <path class="cls-2" d="M 77.62 24.14 L 78.69 24.14 L 78.69 24.9 L 78.69 24.9 C 79.02 24.329 79.63 23.978 80.29 23.98 C 81.322 23.848 82.211 24.704 82.12 25.74 L 82.12 29.31 L 81 29.31 L 81 26.06 C 81 25.25 80.66 24.9 80 24.9 C 79.268 24.903 78.696 25.531 78.76 26.26 L 78.76 29.31 L 77.62 29.31 Z"/>
      <path class="cls-2" d="M 87.75 28.16 C 87.75 28.44 87.81 28.55 88.02 28.55 C 88.113 28.558 88.207 28.558 88.3 28.55 L 88.3 29.34 C 88.067 29.414 87.825 29.458 87.58 29.47 C 87.166 29.536 86.777 29.254 86.71 28.84 C 86.212 29.264 85.574 29.488 84.92 29.47 C 84 29.589 83.178 28.887 83.15 27.96 C 83.15 26.67 84.15 26.46 85.15 26.35 C 86.15 26.24 86.7 26.29 86.7 25.62 C 86.7 24.95 86.09 24.92 85.63 24.92 C 84.99 24.92 84.54 25.18 84.49 25.74 L 83.35 25.74 C 83.43 24.41 84.56 24.02 85.7 24.02 C 86.84 24.02 87.76 24.43 87.76 25.52 Z M 86.62 26.72 C 86.175 26.905 85.701 27.01 85.22 27.03 C 84.73 27.11 84.29 27.29 84.29 27.89 C 84.29 28.49 84.94 28.55 85.34 28.55 C 85.74 28.55 86.62 28.29 86.62 27.55 Z"/>
      <path class="cls-2" d="M 93.93 29.31 L 92.85 29.31 L 92.85 28.61 L 92.85 28.61 C 92.519 29.17 91.899 29.495 91.25 29.45 C 89.62 29.45 88.83 28.24 88.83 26.69 C 88.83 24.82 89.94 24 91.07 24 C 91.743 23.963 92.39 24.267 92.79 24.81 L 92.79 24.81 L 92.79 22.17 L 93.93 22.17 Z M 91.38 28.55 C 92.38 28.55 92.83 27.62 92.83 26.72 C 92.83 25.58 92.28 24.9 91.4 24.9 C 90.33 24.9 89.95 25.85 89.95 26.78 C 89.95 27.71 90.39 28.55 91.38 28.55 Z"/>
      <path class="cls-2" d="M 99.57 28.16 C 99.57 28.44 99.63 28.55 99.84 28.55 C 99.933 28.558 100.027 28.558 100.12 28.55 L 100.12 29.34 C 99.887 29.414 99.645 29.458 99.4 29.47 C 98.94 29.47 98.61 29.31 98.52 28.84 C 98.022 29.264 97.384 29.488 96.73 29.47 C 95.817 29.564 95.019 28.858 95 27.94 C 95 26.65 96 26.44 97 26.33 C 98 26.22 98.55 26.27 98.55 25.6 C 98.55 24.93 97.94 24.9 97.48 24.9 C 96.84 24.9 96.39 25.16 96.34 25.72 L 95.2 25.72 C 95.28 24.39 96.41 24 97.55 24 C 98.69 24 99.62 24.41 99.62 25.5 Z M 98.43 26.72 C 97.975 26.902 97.49 27 97 27.01 C 96.51 27.09 96.07 27.27 96.07 27.87 C 96.07 28.47 96.72 28.53 97.12 28.53 C 97.52 28.53 98.4 28.27 98.4 27.53 Z"/>
      <path class="cls-2" d="M 50.44 -13.83 L 53.59 -13.83 C 55.59 -13.83 56.02 -12.51 56.02 -11.62 C 56.02 -10.73 55.62 -9.42 53.59 -9.43 L 51.69 -9.43 L 51.69 -6.69 L 50.44 -6.69 Z M 51.69 -10.45 L 53.52 -10.45 C 54.208 -10.383 54.798 -10.939 54.77 -11.63 C 54.77 -12.57 54.2 -12.81 53.54 -12.81 L 51.69 -12.81 Z"/>
      <path class="cls-2" d="M 61.47 -6.69 L 60.35 -6.69 L 60.35 -7.41 L 60.35 -7.41 C 60.043 -6.887 59.486 -6.561 58.88 -6.55 C 57.53 -6.55 56.95 -7.23 56.95 -8.55 L 56.95 -11.86 L 58.09 -11.86 L 58.09 -8.69 C 58.09 -7.78 58.46 -7.45 59.09 -7.45 C 60.04 -7.45 60.36 -8.06 60.36 -8.86 L 60.36 -11.86 L 61.5 -11.86 Z"/>
      <path class="cls-2" d="M 62.77 -13.83 L 63.9 -13.83 L 63.9 -11.19 L 63.9 -11.19 C 64.253 -11.702 64.839 -12.002 65.46 -11.99 C 67.09 -11.99 67.88 -10.75 67.88 -9.24 C 67.88 -7.73 67.18 -6.54 65.65 -6.54 C 64.942 -6.452 64.247 -6.784 63.87 -7.39 L 63.87 -7.39 L 63.87 -6.69 L 62.77 -6.69 Z M 65.31 -11.1 C 64.31 -11.1 63.87 -10.37 63.87 -9.27 C 63.87 -8.17 64.4 -7.45 65.31 -7.45 C 66.22 -7.45 66.74 -8.37 66.74 -9.27 C 66.74 -10.17 66.25 -11.1 65.31 -11.1 Z"/>
      <path class="cls-2" d="M 68.94 -13.83 L 70.08 -13.83 L 70.08 -6.69 L 68.94 -6.69 Z"/>
      <path class="cls-2" d="M 71.39 -13.83 L 72.52 -13.83 L 72.52 -12.75 L 71.39 -12.75 Z M 71.39 -11.83 L 72.52 -11.83 L 72.52 -6.69 L 71.39 -6.69 Z"/>
      <path class="cls-2" d="M 77.31 -10.13 C 77.262 -10.733 76.733 -11.182 76.13 -11.13 C 75.54 -11.13 74.71 -10.82 74.71 -9.25 C 74.71 -8.39 75.09 -7.48 76.08 -7.48 C 76.74 -7.479 77.283 -8 77.31 -8.66 L 78.45 -8.66 C 78.37 -7.431 77.309 -6.5 76.08 -6.58 C 74.607 -6.524 73.423 -7.783 73.57 -9.25 C 73.418 -10.746 74.617 -12.034 76.12 -11.99 C 77.284 -12.13 78.335 -11.286 78.45 -10.12 Z"/>
      <path class="cls-2" d="M 83.14 -9.07 C 83.14 -7.99 84 -7.54 85 -7.54 C 86 -7.54 86.51 -8.08 86.51 -8.62 C 86.543 -9.015 86.298 -9.38 85.92 -9.5 C 85.42 -9.69 84.77 -9.82 83.79 -10.09 C 82.881 -10.206 82.203 -10.984 82.21 -11.9 C 82.21 -13.33 83.53 -14 84.82 -14 C 86.31 -14 87.56 -13.21 87.56 -11.72 L 86.26 -11.72 C 86.2 -12.64 85.58 -12.99 84.72 -12.99 C 84.14 -12.99 83.41 -12.78 83.41 -12.06 C 83.41 -11.56 83.75 -11.28 84.26 -11.14 C 84.37 -11.14 85.95 -10.7 86.32 -10.59 C 87.14 -10.365 87.709 -9.62 87.71 -8.77 C 87.71 -7.17 86.29 -6.53 84.87 -6.53 C 83.24 -6.53 81.87 -7.31 81.87 -9.08 Z"/>
      <path class="cls-2" d="M 89.63 -8.99 C 89.534 -8.17 90.175 -7.45 91 -7.45 C 91.572 -7.398 92.1 -7.759 92.26 -8.31 L 93.34 -8.31 C 93.097 -7.229 92.106 -6.484 91 -6.55 C 89.502 -6.492 88.304 -7.78 88.47 -9.27 C 88.36 -11.191 90.372 -12.511 92.091 -11.645 C 93.072 -11.151 93.616 -10.073 93.43 -8.99 Z M 92.29 -9.74 C 92.29 -10.764 91.182 -11.404 90.295 -10.892 C 89.883 -10.654 89.63 -10.215 89.63 -9.74 Z"/>
      <path class="cls-2" d="M 94.4 -11.86 L 95.47 -11.86 L 95.47 -10.86 L 95.47 -10.86 C 95.695 -11.519 96.304 -11.969 97 -11.99 C 97.143 -12.001 97.287 -12.001 97.43 -11.99 L 97.43 -10.89 C 97.27 -10.899 97.11 -10.899 96.95 -10.89 C 96.16 -10.89 95.55 -10.26 95.55 -9.12 L 95.55 -6.69 L 94.4 -6.69 Z"/>
      <path class="cls-2" d="M 97.83 -11.86 L 99.07 -11.86 L 100.38 -7.86 L 100.38 -7.86 L 101.64 -11.86 L 102.82 -11.86 L 101 -6.69 L 99.71 -6.69 Z"/>
      <path class="cls-2" d="M 103.64 -13.83 L 104.78 -13.83 L 104.78 -12.75 L 103.64 -12.75 Z M 103.64 -11.83 L 104.78 -11.83 L 104.78 -6.69 L 103.64 -6.69 Z"/>
      <path class="cls-2" d="M 109.56 -10.13 C 109.512 -10.733 108.983 -11.182 108.38 -11.13 C 107.79 -11.13 106.96 -10.82 106.96 -9.25 C 106.96 -8.39 107.34 -7.48 108.33 -7.48 C 108.99 -7.479 109.533 -8 109.56 -8.66 L 110.7 -8.66 C 110.62 -7.431 109.559 -6.5 108.33 -6.58 C 106.857 -6.524 105.673 -7.783 105.82 -9.25 C 105.668 -10.746 106.867 -12.034 108.37 -11.99 C 109.534 -12.13 110.585 -11.286 110.7 -10.12 Z"/>
      <path class="cls-2" d="M 112.6 -8.99 C 112.503 -8.158 113.163 -7.432 114 -7.45 C 114.572 -7.398 115.1 -7.759 115.26 -8.31 L 116.34 -8.31 C 116.097 -7.229 115.106 -6.484 114 -6.55 C 112.502 -6.492 111.304 -7.78 111.47 -9.27 C 111.276 -11.185 113.227 -12.591 114.983 -11.802 C 116.06 -11.317 116.651 -10.145 116.4 -8.99 Z M 115.26 -9.74 C 115.26 -10.764 114.152 -11.404 113.265 -10.892 C 112.853 -10.654 112.6 -10.215 112.6 -9.74 Z"/>
      <path class="cls-2" d="M 125 -11.56 C 124.86 -12.409 124.11 -13.022 123.25 -12.99 C 121.72 -12.99 121.08 -11.64 121.08 -10.27 C 121.08 -8.9 121.72 -7.55 123.25 -7.55 C 124.27 -7.561 125.087 -8.4 125.07 -9.42 L 126.29 -9.42 C 126.268 -7.79 124.92 -6.491 123.29 -6.53 C 121.277 -6.54 119.701 -8.264 119.87 -10.27 C 119.714 -12.252 121.262 -13.956 123.25 -13.99 C 124.743 -14.114 126.067 -13.037 126.25 -11.55 Z"/>
      <path class="cls-2" d="M 127.11 -9.28 C 127.11 -11.289 129.285 -12.545 131.025 -11.54 C 131.833 -11.074 132.33 -10.212 132.33 -9.28 C 132.33 -7.271 130.155 -6.015 128.415 -7.02 C 127.607 -7.486 127.11 -8.348 127.11 -9.28 Z M 131.19 -9.28 C 131.19 -10.17 130.74 -11.1 129.72 -11.1 C 128.7 -11.1 128.25 -10.17 128.25 -9.28 C 128.25 -8.39 128.7 -7.45 129.72 -7.45 C 130.74 -7.45 131.19 -8.38 131.19 -9.28 Z"/>
      <path class="cls-2" d="M 133.36 -11.86 L 134.44 -11.86 L 134.44 -11.14 L 134.44 -11.14 C 134.774 -11.709 135.402 -12.039 136.06 -11.99 C 136.674 -12.038 137.251 -11.693 137.5 -11.13 C 137.853 -11.68 138.467 -12.006 139.12 -11.99 C 140.137 -12.145 141.011 -11.266 140.85 -10.25 L 140.85 -6.69 L 139.71 -6.69 L 139.71 -9.69 C 139.71 -10.51 139.66 -11.08 138.77 -11.08 C 137.88 -11.08 137.67 -10.57 137.67 -9.7 L 137.67 -6.7 L 136.54 -6.7 L 136.54 -9.99 C 136.54 -10.7 136.31 -11.08 135.63 -11.08 C 134.937 -11.044 134.418 -10.429 134.5 -9.74 L 134.5 -6.69 L 133.36 -6.69 Z"/>
      <path class="cls-2" d="M 142.14 -11.86 L 143.21 -11.86 L 143.21 -11.14 L 143.21 -11.14 C 143.544 -11.709 144.172 -12.039 144.83 -11.99 C 145.447 -12.04 146.028 -11.695 146.28 -11.13 C 146.633 -11.68 147.247 -12.006 147.9 -11.99 C 148.917 -12.145 149.791 -11.266 149.63 -10.25 L 149.63 -6.69 L 148.49 -6.69 L 148.49 -9.69 C 148.49 -10.51 148.44 -11.08 147.55 -11.08 C 146.66 -11.08 146.45 -10.57 146.45 -9.7 L 146.45 -6.7 L 145.31 -6.7 L 145.31 -9.99 C 145.31 -10.7 145.09 -11.08 144.4 -11.08 C 143.707 -11.044 143.188 -10.429 143.27 -9.74 L 143.27 -6.69 L 142.14 -6.69 Z"/>
      <path class="cls-2" d="M 150.93 -13.83 L 152.07 -13.83 L 152.07 -12.75 L 150.93 -12.75 Z M 150.93 -11.83 L 152.07 -11.83 L 152.07 -6.69 L 150.93 -6.69 Z"/>
      <path class="cls-2" d="M 154.23 -8.35 C 154.29 -7.69 154.78 -7.45 155.4 -7.45 C 155.82 -7.45 156.57 -7.54 156.54 -8.13 C 156.51 -8.72 155.68 -8.8 154.86 -8.99 C 154.04 -9.18 153.2 -9.47 153.2 -10.52 C 153.2 -11.57 154.42 -11.99 155.36 -11.99 C 156.391 -12.139 157.351 -11.43 157.51 -10.4 L 156.32 -10.4 C 156.22 -10.94 155.77 -11.09 155.32 -11.09 C 154.99 -11.09 154.39 -11.01 154.39 -10.56 C 154.39 -10.11 155.22 -9.92 156.06 -9.73 C 156.9 -9.54 157.73 -9.24 157.73 -8.22 C 157.73 -6.99 156.49 -6.54 155.42 -6.54 C 154.13 -6.54 153.16 -7.12 153.14 -8.34 Z"/>
      <path class="cls-2" d="M 159.55 -8.35 C 159.61 -7.69 160.11 -7.45 160.72 -7.45 C 161.15 -7.45 161.9 -7.54 161.87 -8.13 C 161.84 -8.72 161 -8.8 160.18 -8.99 C 159.36 -9.18 158.52 -9.47 158.52 -10.52 C 158.52 -11.57 159.74 -11.99 160.68 -11.99 C 161.62 -11.99 162.68 -11.55 162.84 -10.4 L 161.65 -10.4 C 161.55 -10.94 161.1 -11.09 160.6 -11.09 C 160.27 -11.09 159.66 -11.01 159.66 -10.56 C 159.66 -10.11 160.5 -9.92 161.34 -9.73 C 162.18 -9.54 163 -9.25 163 -8.23 C 163 -7 161.76 -6.55 160.69 -6.55 C 159.39 -6.55 158.42 -7.13 158.4 -8.35 Z"/>
      <path class="cls-2" d="M 164 -13.83 L 165.13 -13.83 L 165.13 -12.75 L 164 -12.75 Z M 164 -11.83 L 165.13 -11.83 L 165.13 -6.69 L 164 -6.69 Z"/>
      <path class="cls-2" d="M 166.19 -9.28 C 166.19 -11.289 168.365 -12.545 170.105 -11.54 C 170.913 -11.074 171.41 -10.212 171.41 -9.28 C 171.41 -7.271 169.235 -6.015 167.495 -7.02 C 166.687 -7.486 166.19 -8.348 166.19 -9.28 Z M 170.27 -9.28 C 170.27 -10.17 169.82 -11.1 168.8 -11.1 C 167.78 -11.1 167.33 -10.17 167.33 -9.28 C 167.33 -8.39 167.78 -7.45 168.8 -7.45 C 169.82 -7.45 170.27 -8.38 170.27 -9.28 Z"/>
      <path class="cls-2" d="M 172.44 -11.86 L 173.52 -11.86 L 173.52 -11.1 L 173.52 -11.1 C 173.864 -11.668 174.486 -12.007 175.15 -11.99 C 176.185 -12.135 177.087 -11.282 177 -10.24 L 177 -6.69 L 175.86 -6.69 L 175.86 -9.94 C 175.86 -10.75 175.52 -11.1 174.86 -11.1 C 174.127 -11.096 173.552 -10.471 173.61 -9.74 L 173.61 -6.69 L 172.47 -6.69 Z"/>
      <path class="cls-2" d="M 50 0.72 C 50 -1.289 52.175 -2.545 53.915 -1.54 C 54.723 -1.074 55.22 -0.212 55.22 0.72 C 55.22 2.729 53.045 3.985 51.305 2.98 C 50.497 2.514 50 1.652 50 0.72 Z M 54.08 0.72 C 54.08 -0.17 53.63 -1.1 52.61 -1.1 C 51.59 -1.1 51.14 -0.17 51.14 0.72 C 51.14 1.61 51.59 2.55 52.61 2.55 C 53.63 2.55 54.12 1.62 54.12 0.72 Z"/>
      <path class="cls-2" d="M 55.72 -1.86 L 56.56 -1.86 L 56.56 -2.29 C 56.56 -3.61 57.25 -3.83 57.99 -3.83 C 58.259 -3.84 58.527 -3.817 58.79 -3.76 L 58.79 -2.87 C 58.617 -2.914 58.439 -2.935 58.26 -2.93 C 57.95 -2.93 57.7 -2.82 57.7 -2.39 L 57.7 -1.86 L 58.7 -1.86 L 58.7 -0.99 L 57.7 -0.99 L 57.7 3.31 L 56.56 3.31 L 56.56 -0.99 L 55.72 -0.99 Z"/>
      <path class="cls-2" d="M 67.13 -1.56 C 66.988 -2.421 66.221 -3.037 65.35 -2.99 C 63.82 -2.99 63.18 -1.64 63.18 -0.27 C 63.18 1.1 63.82 2.45 65.35 2.45 C 66.37 2.439 67.187 1.6 67.17 0.58 L 68.39 0.58 C 68.368 2.21 67.02 3.509 65.39 3.47 C 63.378 3.46 61.805 1.734 61.98 -0.27 C 61.818 -2.251 63.363 -3.956 65.35 -3.99 C 66.843 -4.114 68.167 -3.037 68.35 -1.55 Z"/>
      <path class="cls-2" d="M 73.74 2.16 C 73.74 2.44 73.8 2.55 74.01 2.55 C 74.103 2.558 74.197 2.558 74.29 2.55 L 74.29 3.34 C 74.057 3.414 73.815 3.458 73.57 3.47 C 73.11 3.47 72.78 3.31 72.69 2.84 C 72.192 3.264 71.554 3.488 70.9 3.47 C 69.98 3.589 69.158 2.887 69.13 1.96 C 69.13 0.67 70.13 0.46 71.13 0.35 C 72.13 0.24 72.68 0.29 72.68 -0.38 C 72.68 -1.05 72.07 -1.08 71.61 -1.08 C 70.97 -1.08 70.52 -0.82 70.47 -0.26 L 69.32 -0.26 C 69.4 -1.61 70.53 -1.99 71.67 -1.99 C 72.81 -1.99 73.74 -1.58 73.74 -0.49 Z M 72.6 0.72 C 72.155 0.905 71.681 1.01 71.2 1.03 C 70.71 1.11 70.27 1.29 70.27 1.89 C 70.27 2.49 70.92 2.55 71.27 2.55 C 71.62 2.55 72.55 2.29 72.55 1.55 Z"/>
      <path class="cls-2" d="M 75.11 -1.86 L 76.19 -1.86 L 76.19 -1.1 L 76.19 -1.1 C 76.521 -1.67 77.131 -2.02 77.79 -2.02 C 78.822 -2.152 79.711 -1.296 79.62 -0.26 L 79.62 3.31 L 78.5 3.31 L 78.5 0.06 C 78.5 -0.75 78.16 -1.1 77.5 -1.1 C 76.768 -1.097 76.196 -0.469 76.26 0.26 L 76.26 3.31 L 75.11 3.31 Z"/>
      <path class="cls-2" d="M 85.25 2.16 C 85.25 2.44 85.31 2.55 85.52 2.55 C 85.61 2.559 85.7 2.559 85.79 2.55 L 85.79 3.34 C 85.56 3.414 85.321 3.458 85.08 3.47 C 84.62 3.47 84.29 3.31 84.2 2.84 C 83.702 3.264 83.064 3.488 82.41 3.47 C 81.49 3.589 80.668 2.887 80.64 1.96 C 80.64 0.67 81.64 0.46 82.64 0.35 C 83.64 0.24 84.19 0.29 84.19 -0.38 C 84.19 -1.05 83.58 -1.08 83.12 -1.08 C 82.48 -1.08 82.03 -0.82 81.98 -0.26 L 80.83 -0.26 C 80.91 -1.61 82 -1.99 83.18 -1.99 C 84.36 -1.99 85.25 -1.58 85.25 -0.49 Z M 84.11 0.72 C 83.665 0.905 83.191 1.01 82.71 1.03 C 82.22 1.11 81.78 1.29 81.78 1.89 C 81.78 2.49 82.43 2.55 82.78 2.55 C 83.13 2.55 84.06 2.29 84.06 1.55 Z"/>
      <path class="cls-2" d="M 91.42 3.31 L 90.34 3.31 L 90.34 2.61 L 90.34 2.61 C 90.009 3.17 89.389 3.495 88.74 3.45 C 87.11 3.45 86.32 2.24 86.32 0.69 C 86.32 -1.18 87.43 -2 88.56 -2 C 89.233 -2.037 89.88 -1.733 90.28 -1.19 L 90.28 -1.19 L 90.28 -3.83 L 91.42 -3.83 Z M 88.87 2.55 C 89.87 2.55 90.32 1.62 90.32 0.72 C 90.32 -0.42 89.77 -1.1 88.89 -1.1 C 87.82 -1.1 87.44 -0.15 87.44 0.78 C 87.44 1.71 87.88 2.55 88.87 2.55 Z"/>
      <path class="cls-2" d="M 97.06 2.16 C 97.06 2.44 97.12 2.55 97.33 2.55 C 97.423 2.558 97.517 2.558 97.61 2.55 L 97.61 3.34 C 97.377 3.414 97.135 3.458 96.89 3.47 C 96.43 3.47 96.1 3.31 96.01 2.84 C 95.512 3.264 94.874 3.488 94.22 3.47 C 93.3 3.589 92.478 2.887 92.45 1.96 C 92.45 0.67 93.45 0.46 94.45 0.35 C 95.45 0.24 96 0.27 96 -0.4 C 96 -1.07 95.39 -1.1 94.93 -1.1 C 94.29 -1.1 93.84 -0.84 93.79 -0.28 L 92.64 -0.28 C 92.72 -1.61 93.85 -1.99 95 -1.99 C 96.15 -1.99 97.07 -1.58 97.07 -0.49 Z M 95.92 0.72 C 95.475 0.905 95.001 1.01 94.52 1.03 C 94.03 1.11 93.59 1.29 93.59 1.89 C 93.59 2.49 94.24 2.55 94.59 2.55 C 94.94 2.55 95.87 2.29 95.87 1.55 Z"/>
    </g>
  </g>
</svg>